<svg xmlns="http://www.w3.org/2000/svg" role="img" viewBox="-11.72 -11.72 609.44 569.44"><title>2022_OSFF_London_BLK.svg</title><style>svg {enable-background:new 0 0 586.52 546.24}</style><path d="M354.86 390.08h6.27v-11.95c0-2.93-1.71-5.3-5.61-5.3-2.96 0-4.81 1.22-5.78 2.34v-1.92h-6.27v16.83h6.27V379.7c.52-.59 1.25-1.32 2.68-1.32 1.5 0 2.44.66 2.44 2.4v9.3zm-26.69-5.12c-1.92 0-3-1.43-3-3.31 0-1.85 1.08-3.28 3-3.28 1.95 0 3.03 1.43 3.03 3.28 0 1.88-1.08 3.31-3.03 3.31m0 5.54c5.99 0 9.48-4.15 9.48-8.85s-3.48-8.82-9.48-8.82c-5.96 0-9.44 4.11-9.44 8.82s3.48 8.85 9.44 8.85m-21.53-6.69c-.59.73-1.78 1.15-2.61 1.15-1.71 0-3.14-1.22-3.14-3.31s1.43-3.28 3.14-3.28c.84 0 2.02.38 2.61 1.12v4.32zm0 6.27h6.27v-23.24h-6.27v8.19c-1.32-1.6-3.03-2.2-4.74-2.2-4.15 0-7.42 3.24-7.42 8.82 0 5.78 3.35 8.85 7.42 8.85 1.71 0 3.31-.59 4.74-2.2v1.78zm-24.25 0h6.27v-11.95c0-2.93-1.71-5.3-5.61-5.3-2.96 0-4.81 1.22-5.78 2.34v-1.92H271v16.83h6.27V379.7c.52-.59 1.25-1.32 2.68-1.32 1.5 0 2.44.66 2.44 2.4v9.3zm-26.69-5.12c-1.92 0-3-1.43-3-3.31 0-1.85 1.08-3.28 3-3.28 1.95 0 3.03 1.43 3.03 3.28 0 1.88-1.08 3.31-3.03 3.31m0 5.54c5.99 0 9.48-4.15 9.48-8.85s-3.48-8.82-9.48-8.82c-5.96 0-9.44 4.11-9.44 8.82s3.48 8.85 9.44 8.85m-30.32-.42h15.85v-6.13h-8.82v-17.11h-7.04v23.24z"/><path d="M92.99 388.95c.79-.32 1.46-.8 2.04-1.37l31.21 30.95c-.53.72-.79 1.63-.61 2.58.25 1.31 1.24 2.28 2.46 2.58l-4.75 47.15c-.4-.08-.82-.14-1.25-.1l-29.1-81.79zm31.28 82.21l4.77-47.42c.16-.01.31.04.47.01 1.71-.32 2.82-1.91 2.64-3.61l36.53-9.41c.21.62.55 1.16.99 1.61l-44.49 58.97-.71-.05c-.07-.03-.13-.07-.2-.1m45-63.85c-.1.15-.26.26-.34.42l-71.87-23.7c.17-.83.22-1.7.05-2.59-.04-.19-.15-.34-.2-.53l32.83-10.75c.64 1.29 2.04 2.08 3.53 1.8.49-.09.93-.31 1.31-.59l34.69 35.94zm-72.6-22.18l71.86 23.7c-.05.31-.03.64-.01.97l-36.62 9.44c-.59-1.41-2.05-2.29-3.61-2-.52.1-.96.33-1.36.63l-31.26-31c.39-.54.75-1.11 1-1.74m22.98 86.96c-.23.24-.46.47-.62.77l-2.42-.97 3.04.2zm46.54-1.1l30.02-57.15c1.17.41 2.48.28 3.55-.42l28.81 32.39c-.89.99-1.2 2.3-.94 3.54l-59.92 23c-.1-.14-.16-.3-.28-.43-.36-.4-.79-.7-1.24-.93m1.73 5.58c.54-.98.62-2.12.3-3.17l59.82-22.96c.15.27.25.56.46.8.55.62 1.27.96 2.02 1.16L223 505.97c-1.52.05-3.03.58-4.26 1.67-.38.34-.63.76-.92 1.15l-49.9-32.22zm56.25 29.46l7.51-53.48c.55-.02 1.08-.16 1.59-.39l16.69 24.39c-1.32 1.21-1.44 3.24-.26 4.59l-22.6 26.13c-.91-.62-1.88-1.09-2.93-1.24m3.67 1.83l22.6-26.12c1.22.77 2.82.74 3.95-.27.38-.33.64-.74.82-1.18l48.24 12.92c-.01.18-.09.35-.08.54l-73.81 16.7c-.28-.8-.69-1.57-1.29-2.25-.11-.14-.29-.21-.43-.34m1.97 3.73l73.8-16.7c.11.3.31.57.49.84l-26.53 26.95c-1.23-.9-2.93-.91-4.12.15-.39.35-.65.78-.84 1.24l-42.76-10.47c.06-.66.07-1.34-.04-2.01m74.43-20.7l-68.91-40.97c.26-.72.32-1.49.18-2.24l46.92-16.6c.15.29.27.59.49.84.98 1.1 2.4 1.47 3.75 1.24l18.91 56.7c-.31.16-.63.29-.9.53-.17.16-.3.33-.44.5m-16.47-58.09c.31-.16.63-.28.9-.53.35-.31.58-.68.8-1.06l41.16 16.05c-.28 1.24-.06 2.58.85 3.61.15.17.35.25.51.39l-6.36 10.61c-.76.07-1.52.29-2.17.8-1.45 1.16-1.84 3.1-1.15 4.73l-13.38 22.33c-.71-.27-1.49-.36-2.25-.23l-18.91-56.7zm37.79 37.06c1.04.13 2.12-.12 3-.83.92-.74 1.41-1.8 1.49-2.89l61.38 7.45c.02.58.12 1.17.38 1.71l-60.56 56.56c-.63-.35-1.33-.53-2.05-.53l-3.64-61.47zm6.63 62.74l60.28-56.3c.29.3.62.52.97.7l-17.34 41c-.98-.25-2.04-.11-2.89.56-.96.77-1.33 1.95-1.15 3.09l-39.18 12.06c-.13-.31-.25-.62-.47-.89-.06-.09-.15-.15-.22-.22m-28.54-40.7c-.04.12-.02.25-.05.37l-48.14-12.9c.11-.91-.13-1.85-.78-2.59-1.01-1.14-2.6-1.36-3.91-.73l-16.68-24.37c.05-.04.12-.06.17-.1.21-.19.32-.43.49-.65l68.9 40.97zm93.76-21.89l32.96-55.5c1.15.47 2.46.41 3.57-.23l27.07 33.85c-.94.94-1.32 2.23-1.13 3.49l-61.04 19.83c-.09-.15-.14-.31-.25-.45-.33-.42-.74-.74-1.18-.99m37.42-56.49c1.05-1.13 1.37-2.72.87-4.13l61.76-33.49c.03.04.03.09.06.12.27.34.61.57.95.8l-33.39 70.37c-1.01-.3-2.13-.24-3.11.28l-27.14-33.95zM83.73 382.4l-39.26 4.19c.17.38.37.74.54 1.11l38.79-4.14c.02.12.01.24.03.37.21 1.1.67 2.07 1.32 2.89L61.7 408.36c-.73-.59-1.68-.91-2.68-.72-.83.16-1.51.63-1.99 1.25l-1.57-.88c.29.52.56 1.05.86 1.57l.27.15c-.03.07-.04.14-.06.21.8 1.39 1.68 2.74 2.51 4.11.25.04.5.11.76.09l.35 1.73c.48.79.95 1.58 1.44 2.36l-.86-4.28c1.5-.54 2.46-2.05 2.16-3.67-.09-.47-.28-.89-.53-1.25l23.45-21.54c.5.48 1.05.91 1.67 1.21l-14.11 46.8c.29.39.58.77.87 1.16l14.33-47.54c.99.29 2.06.39 3.15.19.06-.01.11-.04.16-.05L120.97 471l-7.83-.54-15.27-6.16c.7.71 1.42 1.41 2.12 2.11l9.4 3.79-6.01-.41c.43.41.83.84 1.26 1.25l8.23.56 5.73 2.31c-.1.5-.12 1.03-.02 1.57.1.52.31.99.57 1.41l-4.72 3.03c.31.26.61.53.92.79l4.6-2.96c.91.79 2.11 1.21 3.39.98 2.21-.42 3.67-2.55 3.26-4.76-.11-.57-.38-1.04-.69-1.48l34.52 2.37c.05.58.18 1.16.47 1.69l-21.61 22.41.99.66 21.32-22.12c.3.29.64.49 1 .65l-10.51 28.99c.28.17.55.33.83.49l10.43-28.78 2 35.76c.4.21.8.43 1.2.64l-2.05-36.63c.93-.01 1.85-.31 2.6-.98.06-.05.08-.12.13-.17l49.97 32.27c-.92 1.93-.93 4.22.12 6.14l-18.17 13.73c.44.16.88.31 1.32.46l17.51-13.23c.08.1.13.2.22.3.74.83 1.64 1.43 2.62 1.8l-4.78 16.2c.3.09.6.18.91.27l4.79-16.23c.68.15 1.37.24 2.06.18l4.86 19.15c.43.1.85.21 1.28.31l-4.99-19.66c1-.26 1.97-.73 2.79-1.46.04-.04.07-.08.11-.12l32.54 26.74c.73.09 1.47.22 2.2.3l-33.95-27.9c.51-.68.84-1.44 1.05-2.23l42.69 10.46c-.09.89.16 1.8.8 2.52.89 1 2.24 1.31 3.44.95l8.37 17.74c.36.01.71.03 1.07.04l-8.6-18.22c.13-.09.28-.13.4-.23 1.3-1.16 1.43-3.09.41-4.45l26.46-26.88c.5.42 1.06.71 1.67.87l-5.17 48.91c.39-.01.79 0 1.18-.02l5.15-48.75c.91-.04 1.82-.32 2.55-.97 1.68-1.5 1.83-4.07.34-5.76-.15-.17-.33-.29-.49-.42l13.05-21.78c.39.44.87.76 1.38.99l3.67 61.95c-.48.15-.95.37-1.36.7-1.76 1.41-2.05 3.97-.64 5.73.9 1.13 2.28 1.58 3.62 1.43l1.44 4.38c.39-.05.77-.14 1.17-.19l-1.48-4.48c.34-.14.68-.27.98-.5.63-.5 1-1.17 1.24-1.87l14.99 4.06c.83-.17 1.66-.35 2.49-.53l-17.23-4.67c.01-.31-.06-.61-.11-.91l39.2-12.07c.11.23.18.47.35.67.97 1.21 2.59 1.5 3.94.89l4.85 7.52c.31-.11.61-.21.92-.32l-4.95-7.68c1.33-1.16 1.54-3.16.43-4.55-.25-.31-.56-.55-.89-.74l17.16-40.59.18 49.12c.39-.16.77-.34 1.17-.5l-.18-48.79c.92.04 1.86-.21 2.65-.84.06-.05.08-.12.14-.17l39.31 28.4c.36-.22.72-.43 1.08-.66l-39.64-28.64c.59-.95.73-2.08.46-3.15l60.94-19.8c.13.28.22.57.42.82.52.65 1.22 1.03 1.96 1.26l-7.39 38.06c.47-.34.93-.7 1.39-1.04l7.15-36.8c.55.01 1.09-.11 1.61-.3l12.11 19.85c.24-.22.48-.43.71-.65l-11.98-19.64c.06-.04.13-.05.18-.1.22-.18.35-.41.52-.62l19.16 12.8.84-.84-19.37-12.93c.3-.7.4-1.47.29-2.22l43.34-12.82c.39-.51.77-1.04 1.15-1.55l-44.83 13.26c-.13-.28-.27-.55-.47-.8-.26-.32-.57-.56-.89-.77l33.39-70.38c.57.17 1.18.22 1.77.15l15.76 52.06c.29-.41.55-.84.84-1.26l-15.48-51.1c.29-.13.57-.29.83-.5.65-.52 1.03-1.23 1.27-1.97l39.38 6.5c.16-.37.3-.74.45-1.11l-39.62-6.54c.02-.92-.22-1.85-.84-2.62-1.41-1.76-3.98-2.04-5.73-.64-1.4 1.12-1.82 2.97-1.24 4.57l-61.77 33.5c-.03-.04-.03-.08-.06-.12-.65-.81-1.55-1.27-2.5-1.43l20.24-28c.81.42 1.75.63 2.72.42 2.2-.48 3.6-2.64 3.13-4.85-.38-1.76-1.85-2.96-3.54-3.15l-.11-3.08h-1.17l.11 3.09c-.05.01-.09-.01-.14 0-.42.09-.78.29-1.14.5l-2.82-3.59h-1.48l3.4 4.33c-.41.44-.73.95-.93 1.52l-34.34-5.84h-6.95l41.06 6.98c-.01.31.01.63.08.96.18.82.64 1.47 1.2 2.01l-20.77 28.72c-.63.12-1.24.34-1.77.77-1.14.91-1.59 2.31-1.43 3.66l-17.62 24.37c-.78-.63-1.78-.98-2.84-.91l-14.29-66.4c.11-.04.21-.11.31-.16h-3.42c.6.29 1.27.45 1.96.41l14.29 66.39c-.8.31-1.49.79-1.96 1.47L362.38 405h-1.95l43.45 32.53c-.2.65-.3 1.33-.15 2.05.48 2.2 2.64 3.6 4.85 3.13 2.2-.48 3.6-2.65 3.13-4.85-.11-.51-.32-.97-.59-1.37l17.23-23.84c.12.23.19.48.35.69.19.23.44.37.66.56l-33.1 55.73c-1.16-.26-2.41-.07-3.42.74-.69.55-1.11 1.29-1.31 2.08l-61.59-7.48c-.13-.59-.36-1.16-.76-1.66-.59-.74-1.4-1.15-2.26-1.36l6.02-10.05c1.4.58 3.06.39 4.27-.69 1.68-1.5 1.83-4.08.33-5.76-.54-.61-1.23-.94-1.96-1.15l5.05-39.3h-1.17l-5.03 39.13c-.94.02-1.88.31-2.64.98-.34.3-.58.68-.79 1.06l-41.16-16.05c.24-1.05.01-2.13-.58-3.07l24.8-22.05h-1.76l-23.76 21.13c-.96-.8-2.21-1.08-3.4-.84l-7.3-20.29h-1.24l7.47 20.7c-.28.15-.57.26-.82.48-1.12.99-1.49 2.46-1.23 3.82l-46.92 16.6c-.14-.27-.3-.53-.51-.77-.27-.31-.6-.53-.93-.73l16.51-40.1h-1.26l-16.33 39.67c-1.03-.25-2.14-.13-3.09.44l-28.88-32.48c.99-1.19 1.22-2.79.65-4.17l11-6.73v-1.37l-11.6 7.1c-.03-.04-.04-.08-.07-.12-1.5-1.68-4.07-1.83-5.76-.34-1.68 1.5-1.83 4.08-.34 5.76.2.22.46.35.69.52l-30.14 57.39c-1.17-.2-2.41.06-3.37.91-.66.59-1.04 1.35-1.2 2.14l-33.91-2.32 44.02-58.35c.8.44 1.72.66 2.69.48 2.21-.42 3.67-2.55 3.26-4.76-.04-.22-.13-.41-.21-.61L212.26 389v-1.32l-36.5 19.46c-.47-.6-1.09-1.08-1.81-1.35l8.38-37.62h-1.2l-8.32 37.37c-.35-.03-.69-.08-1.04-.01-.23.04-.38.2-.59.27l-20.24-37.63h-1.32l20.5 38.12c-.1.08-.15.2-.24.29l-34.63-35.85c.55-.71.82-1.61.67-2.55h-6.51c-.06.36-.07.73-.01 1.11l-32.83 10.75c-.45-1-1.04-1.9-1.86-2.57l7.53-9.3h-1.5l-7 8.64c-1.33-.74-2.9-1.06-4.51-.76-.5.09-.93.32-1.38.52l-4.12-8.4h-1.3l4.38 8.91c-1.81 1.18-2.99 3.13-3.08 5.32m121.86-14.24l6.67 8.62v-1.9l-5.19-6.72h-1.48zm180.81 0l-13.95 11.37v1.5l15.79-12.88h-1.84zM131.37 132l-28.29 41.16c-.42-.21-.89-.35-1.39-.36-1.51-.03-2.76.98-3.18 2.36l-34.1-5.18c.02-.19.06-.37.06-.56.02-.9-.17-1.75-.48-2.54l66.98-35.24c.11.15.28.23.4.36m-.98-1.37l-66.96 35.23c-.35-.58-.8-1.09-1.29-1.54l25.72-35.74c.44.23.92.39 1.44.4 1.59.03 2.88-1.08 3.23-2.57l37.68 3.26c.05.33.07.66.18.96m7.8-.63c.04-.21.1-.42.1-.64.04-2.25-1.74-4.12-4-4.16-.98-.02-1.85.36-2.57.92l-39.3-37.25.41-.26c.91.79 2.11 1.21 3.39.98 2.21-.42 3.67-2.55 3.26-4.76-.12-.62-.4-1.15-.75-1.62l6.14-8.14c-1.96 1.86-3.86 3.79-5.77 5.71l-1.19 1.58c-.08-.06-.17-.08-.26-.12-2.65 2.71-5.24 5.48-7.78 8.3l1.55-.99 39.52 37.46c-.36.51-.6 1.11-.71 1.75l-37.58-3.26c-.11-1.71-1.46-3.09-3.2-3.12-.16 0-.3.06-.46.08l-6.4-23.5c-.25.3-.49.6-.74.9l6.22 22.81c-1.15.5-1.97 1.62-2 2.95-.02.96.39 1.82 1.03 2.44l-25.67 35.67c-.67-.47-1.41-.83-2.24-1.01l7.59-42.69c-.54.8-1.08 1.61-1.61 2.42l-7.14 40.12c-.06 0-.11-.02-.17-.02-1.11-.02-2.14.25-3.07.7l-6.12-12.39c-.22.44-.41.9-.63 1.35l5.75 11.64c-.56.41-1.03.92-1.45 1.47l-8.01-5.21c-.13.29-.27.58-.41.87l7.87 5.12c-.5.91-.8 1.95-.82 3.07 0 .12.03.24.03.37l-10.97.65c-.16.4-.33.8-.49 1.2l11.59-.69c.45 2.14 1.94 3.88 3.9 4.75l-.79 2.65h1.22l.69-2.32c.48.12.94.27 1.45.28 1.64.03 3.14-.55 4.33-1.49l3.99 3.53h1.76l-4.9-4.33c.71-.8 1.22-1.76 1.49-2.83l34.07 5.17c-.01.75.25 1.43.66 1.99h5.27c.41-.52.67-1.17.69-1.9.02-.98-.41-1.85-1.08-2.47l28.23-41.07c.11.07.17.19.28.25l-15.36 45.2h1.23l15.23-44.82c.21.04.43.09.65.1.36.01.69-.1 1.03-.19l18.19 44.91h1.26l-18.37-45.35c.66-.39 1.2-.96 1.56-1.63l42.52 14.28c-.04.21-.14.4-.14.63-.03 1.37.67 2.54 1.69 3.3l-15.43 28.78h1.32l15.12-28.2c.41.15.83.28 1.29.29 1.01.02 1.92-.37 2.64-.97l31.88 28.88h1.73l-32.85-29.77c.42-.63.73-1.33.75-2.15.05-2.25-1.74-4.11-3.99-4.16-1.62-.03-3.01.9-3.7 2.25L138.19 130zm364.49-10.39l-36.72 35.78c-1.55-.56-3.27.07-4.04 1.55l-29.8-7.93c.1-.81-.04-1.63-.4-2.35l70.1-28.5c.19.54.5 1.02.86 1.45m-146.12 24.77l-2.55-.37c-.29-.59-.66-1.14-1.23-1.55-.96-.7-2.11-.84-3.18-.6l-9.23-61.2c.56-.18 1.1-.43 1.55-.83l70.69 43.24c-.17.7-.16 1.43.04 2.12l-56.09 19.19zm56.49-22.41l-70.36-43.04c.22-.36.34-.73.42-1.12l44.14 5.75c.02 1.01.43 2 1.32 2.63.99.72 2.24.75 3.28.29l22.1 34.53c-.26.21-.53.4-.74.69-.07.09-.11.18-.16.27m-20.41-36.01c.19-.16.4-.3.55-.51.91-1.25.76-2.89-.19-4.03l20.38-22.88c.57.4 1.2.57 1.84.64l.38 60.98c-.3.07-.57.22-.85.35l-22.11-34.55zm20.06-28.09l-20.39 22.89c-1.47-.97-3.46-.64-4.5.81-.24.33-.38.69-.48 1.05l-43.7-5.69 68.79-19.34c.08.1.2.18.28.28m-.66-4.25c-.41.94-.42 1.96-.13 2.9l-68.75 19.34c-.21-.9-.7-1.74-1.52-2.33-.06-.04-.13-.05-.2-.09l20.69-55.77c2.09.48 4.32-.01 5.97-1.45l43.94 37.4zm-51-36.36l-20.66 55.7c-1.07-.31-2.2-.15-3.16.39l-35.36-53.43c.23-.2.49-.37.68-.63.49-.68.66-1.45.69-2.23l53.93-4.26c.38 1.47 1.23 2.84 2.55 3.8.42.31.88.46 1.33.66m-24.73 56.82c-.12.13-.26.22-.36.36-.32.44-.52.92-.64 1.41l-62.29-16.93c.15-1.23-.26-2.48-1.18-3.38l25.39-35.13c1.15.65 2.5.68 3.66.15l35.42 53.52zm-39.98-54.43l-25.46 35.23c-1.37-.71-2.99-.59-4.21.27l-27.57-28.58 12.95-17.36 43.19 7.52c-.01 1.06.34 2.11 1.1 2.92m-57.95 7.87l27.44 28.44c-.03.04-.07.06-.1.09-1.32 1.82-.91 4.38.91 5.69 1.83 1.32 4.38.91 5.7-.92.18-.24.24-.52.36-.79l62.55 17c.06 1.19.58 2.34 1.62 3.1.72.52 1.54.72 2.35.71l9.26 61.4c-.38.21-.75.47-1.05.8l-32.69-4.76c-.01-.18.03-.34-.01-.52-.47-2.2-2.65-3.6-4.85-3.13-.18.04-.33.14-.5.2l-39.69-53.89c.43-.82.64-1.76.43-2.74-.48-2.2-2.65-3.61-4.85-3.13-2.2.47-3.6 2.64-3.13 4.85.11.51.33.96.6 1.37l-26.97 37.63c-.51-.62-1.19-1-1.9-1.24l-10.05-66.22c.16-.08.34-.11.49-.21 1.89-1.22 2.44-3.75 1.21-5.64-.1-.15-.25-.24-.36-.37l13.23-17.72zm-15.69 24.29l9.96 65.68c-.75-.01-1.51.13-2.2.57-.08.05-.12.15-.2.21L209 95.94c.99-1.08 1.21-2.7.38-3.99-.19-.3-.46-.52-.72-.74l12.68-39.5c.45.09.9.16 1.35.1m-2.24-.41l-12.63 39.34c-.97-.39-2.08-.38-3.03.23-1.34.87-1.78 2.52-1.23 3.95l-49.81 11.28c-.11-.34-.18-.69-.36-1.01l66.16-54.26c.27.23.59.33.9.47m-1.72-1.3l-66.07 54.19c-.85-.91-1.96-1.49-3.12-1.67l4-49.72c.84.05 1.69-.08 2.45-.57 1.15-.74 1.73-1.97 1.79-3.24l60.31-.81c.07.61.23 1.21.59 1.76.01.02.03.03.05.06m-64.72 58.69c.11-.55.1-1.12.02-1.68l50.01-11.32c1.03 1.28 2.83 1.65 4.26.79l21.32 22.38c-.5.64-.87 1.36-.94 2.16l-74.67-12.33zm78.5 16.69c.81.03 1.64-.1 2.37-.58 1.65-1.06 2.19-3.09 1.52-4.85l27.15-37.9c.62.52 1.38.85 2.2.94l.75 30.82c-1.62.4-2.63 1.94-2.45 3.57l-43.37 27.36c-.34-.45-.73-.86-1.2-1.18l13.03-18.18zm-11.38 20.2l43.2-27.25c.62 1.4 2.11 2.26 3.67 1.92 1.1-.24 1.89-1.02 2.3-1.98l36.75 18.88c-.12.32-.28.62-.31.97l-85.15 8.42c-.1-.34-.3-.64-.46-.96m86.32-9.27l-36.9-18.96c.04-.34.06-.68-.01-1.03-.32-1.5-1.62-2.48-3.09-2.55l-.75-30.78c.1-.01.19-.01.29-.03.79-.17 1.43-.61 1.96-1.14l39.39 53.48c-.36.27-.63.64-.89 1.01m108.93-77.25c.88-.17 1.71-.58 2.34-1.3l57.23 23.37c-.08.84.09 1.69.51 2.43l-56.82 37.92c-.23-.28-.44-.58-.75-.81-.65-.47-1.39-.65-2.14-.69l-.37-60.92zm132.13 117.47l-11.36-6.34c.21-.73.25-1.47.07-2.17l6.5-3.3c-.15-.36-.3-.71-.46-1.07l-6.51 3.3c-.4-.66-.92-1.26-1.67-1.62-.83-.4-1.71-.42-2.54-.26l-22.69-44.72c.65-.48 1.23-1.05 1.61-1.84 1.26-2.62.15-5.76-2.47-7.01-2.62-1.26-5.75-.15-7.01 2.46-.46.95-.51 1.96-.38 2.93l-70.53 28.68c-.33-.36-.72-.68-1.19-.9-2.03-.97-4.47-.12-5.44 1.91-.98 2.03-.12 4.47 1.91 5.44.9.43 1.87.45 2.76.22l18.6 22.07c-.09.07-.22.09-.31.16l-57.07-24.36c.08-.5.09-1.01-.02-1.53-.48-2.2-2.64-3.6-4.85-3.13-1.41.3-2.43 1.34-2.9 2.6l-23.48-3.42 54-18.48c.27.42.61.81 1.04 1.12 1.83 1.32 4.38.91 5.7-.92.85-1.17.91-2.62.41-3.87l57.01-38.05c.13.12.21.28.35.38 1.83 1.32 4.38.91 5.7-.92.11-.15.15-.32.24-.48l7.66 1.58c-.46-.49-.92-.99-1.39-1.48l-5.87-1.21c.08-.45.05-.9-.02-1.35l2.62-.69c-.26-.26-.52-.51-.78-.77l-2.12.56c-.12-.32-.21-.65-.42-.93l1.03-1.13c-.28-.27-.55-.55-.83-.82l-1 1.09c-.02-.02-.03-.04-.05-.06-.53-.38-1.12-.58-1.73-.68l.19-2.92c-.36-.34-.74-.66-1.1-1l-.26 3.88c-1.08.13-2.11.68-2.8 1.63-.2.27-.32.56-.44.86l-56.9-23.24c.36-.83.51-1.71.31-2.56l19.33-12.15c-.37-.23-.75-.44-1.12-.67l-18.62 11.7c-.19-.33-.49-.59-.77-.87l11.58-15.49c-.28-.16-.54-.33-.82-.49L417.7 51.7c-.18-.08-.35-.17-.53-.24l3.58-19.78c-.36-.19-.72-.39-1.08-.57l-3.63 20.07c-.29-.02-.56.08-.84.12l-6.42-25.57c-.37-.17-.74-.35-1.1-.52l6.59 26.22c-.62.23-1.2.59-1.66 1.12l-43.72-37.22c.08-.1.17-.17.24-.27.65-.9 1.04-1.92 1.19-2.95l4.02.28c-3.53-1.1-7.06-2.18-10.66-3.15-2.89-.77-5.78-1.42-8.68-2.09l2.45 1.32c-.42 1.01-.59 2.1-.51 3.16l-53.84 4.25c-.14-.53-.39-1.02-.72-1.47L315.06.87c-.4-.03-.8-.07-1.2-.1l-12.13 12.95c-.05-.04-.08-.11-.14-.15-.23-.16-.49-.22-.74-.33L305.14.22c-.4-.02-.81-.03-1.21-.04l-4.19 12.71c-.76-.1-1.53.01-2.22.31L289.3 0c-.45.01-.91.01-1.36.02l8.63 13.83c-.23.2-.46.41-.64.67-.24.33-.38.7-.51 1.06l-42.6-7.42 4.38-5.88c-.53.07-1.06.11-1.59.18l-4.08 5.47-13.56-2.36c-1.02.21-2.03.43-3.05.65l15.83 2.76-12.49 16.74L222.4 9.27c-.43.12-.86.23-1.29.34l16.45 17.05-13.24 17.75c-.71-.46-1.55-.67-2.4-.64l-10.87-31.19c-.37.12-.74.24-1.11.35L220.77 44c-.3.1-.6.22-.88.4-.99.64-1.58 1.64-1.78 2.71l-60.43.82c-.11-.42-.24-.85-.49-1.24-.3-.46-.67-.82-1.09-1.1l10.14-14.4c-.78.41-1.54.85-2.32 1.26l-8.89 12.63c-.09-.03-.18-.01-.27-.03l1.1-8.16c-.35.2-.69.43-1.04.63l-1 7.41c-.58 0-1.17.08-1.73.33l-2.55-4.53c-.33.2-.67.4-1 .61l2.56 4.55c-.56.51-.98 1.12-1.2 1.81l-9.92-.8c-.51.35-1.03.69-1.54 1.04l11.3.91c-.01.77.13 1.55.58 2.25.5.77 1.24 1.25 2.04 1.55l-4.02 49.99c-.8.07-1.6.25-2.34.72-2.44 1.57-3.14 4.83-1.56 7.27 1.57 2.44 4.82 3.14 7.26 1.56.89-.57 1.45-1.4 1.85-2.3l75.12 12.4c.1.48.26.95.55 1.39.49.76 1.22 1.24 2.01 1.54l-12.87 17.95c-.92-.35-1.91-.54-2.94-.32-2.84.61-4.64 3.4-4.03 6.24.61 2.84 3.41 4.64 6.24 4.03.85-.18 1.55-.62 2.16-1.14l30.64 26.07h1.8l-31.59-26.88c.7-.95 1.08-2.14 1.03-3.39l85.04-8.4c.01.03 0 .05 0 .08.14.64.45 1.18.83 1.66l-37.94 36.93h1.67l37.11-36.12c.9.62 2.02.91 3.18.66.33-.07.62-.2.9-.34l17.29 35.8h1.29l-17.61-36.46c.62-.57 1.07-1.31 1.24-2.15l32.01 4.66c-.77 1.72-.33 3.79 1.26 4.94 1.83 1.32 4.37.91 5.69-.92.4-.55.58-1.16.66-1.78l2.32-.79 25.65 3.73c-.02.36-.07.73.01 1.1.17.78.6 1.41 1.12 1.94l-22.88 25.73h1.56l22.23-25c.27.15.57.22.87.31l-4.08 24.69h.96l4.06-24.53c.33.02.66.06 1.01-.02.11-.02.18-.11.29-.14l7.33 24.68h1.22l-7.49-25.2c.59-.41 1.09-.92 1.4-1.56l56.61 24.16c-.49.75-.71 1.67-.61 2.6h8.07c.05-.41.05-.82-.04-1.25-.47-2.2-2.64-3.6-4.85-3.13-.13.03-.21.13-.33.17l-18.56-22.01c.64-.4 1.22-.91 1.57-1.64.04-.09.06-.18.09-.27l29.76 7.92c-.27 1.44.38 2.93 1.76 3.6.32.15.66.21 1 .25l3.99 16.37h.97l-4-16.4c1.03-.17 1.98-.76 2.46-1.78.69-1.44.2-3.08-1.01-4.02l36.58-35.64c.27.23.51.49.84.67l-19.85 57.17h1.23l19.71-56.78c1.2.33 2.45.24 3.53-.21l22.57 44.49c-.74.39-1.4.96-1.79 1.77-.59 1.23-.44 2.58.17 3.7l-11.15 7.04h2.18l9.65-6.1c.31.31.64.6 1.06.8.49.24 1 .35 1.51.37l-.31 4.92h1.17l.32-5.05c.09-.02.16-.08.24-.11l2.28 5.16h1.03l-2.45-5.56c.5-.3.96-.67 1.3-1.18l12.08 6.74h.34c-.12-.45-.3-.94-.48-1.42m38.01 173.43V308.6h-17.34l-7.27 21.13-7.27-21.13H537.3v41.46h12.55v-26.17l9.26 26.17h5.59l9.26-26.17v26.17h12.56zm-101.99-17.03c0 10.26 5.97 17.77 19.95 17.77s19.89-7.52 19.89-17.84V308.6h-12.74v23.99c0 3.98-2.05 7.15-7.15 7.15-5.16 0-7.21-3.17-7.21-7.15V308.6h-12.74v24.43zm-24.05-10.38c0 2.3-1.99 3.67-4.1 3.67h-7.64v-7.27h7.64c2.11 0 4.1 1.36 4.1 3.6m12.8 27.41l-7.52-14.67c3.29-1.62 7.46-5.41 7.46-12.55 0-7.77-5.22-14.23-14.92-14.23h-22.13v41.46h12.55v-13.3h4.54l5.72 13.3h14.3zm-60.54-20.7c0 5.78-3.91 10.38-9.94 10.38-6.03 0-9.94-4.6-9.94-10.38s3.92-10.38 9.94-10.38c6.03 0 9.94 4.6 9.94 10.38m-32.63 0c0 12.74 9.88 21.44 22.68 21.44 12.8 0 22.68-8.7 22.68-21.44s-9.88-21.44-22.68-21.44c-12.79 0-22.68 8.7-22.68 21.44m-28.21 20.7v-15.72h18.46V323.9H351.9v-4.85h18.89V308.6h-31.45v41.46h12.56zm-46.43 0v-10.44h-18.89v-5.28h18.46V323.9h-18.46v-4.85h18.89V308.6h-31.45v41.46h31.45zm-60.72.74c11.19 0 16.72-6.59 19.14-12.12l-10.81-4.97c-1.06 3.23-4.29 6.03-8.33 6.03-5.72 0-9.76-4.6-9.76-10.38s4.04-10.38 9.76-10.38c4.04 0 7.27 2.8 8.33 6.03l10.81-5.03c-2.49-5.72-7.95-12.06-19.14-12.06-12.68 0-22.5 8.64-22.5 21.44 0 12.74 9.82 21.44 22.5 21.44m-33.19-.74V308.6h-12.55v20.88l-14.42-20.88h-12.93v41.46h12.55v-22.25l15.29 22.25h12.06zm-66.81-15.79h-9.45l4.72-14.61 4.73 14.61zm18.46 15.79l-15.29-41.46h-15.79l-15.29 41.46h13.61l1.62-5.35h15.91l1.62 5.35h13.61zm-54.82 0V308.6H95.84v20.88L81.42 308.6H68.49v41.46h12.55v-22.25l15.29 22.25h12.06zM55.56 308.6H43.01v41.46h12.56V308.6zm-43 41.46v-15.72h18.46V323.9H12.56v-4.85h18.89V308.6H0v41.46h12.56zm533.71-86.58h40.25v-13.95h-23.99v-13.05h23.28v-13.95h-23.28v-12.04h23.99v-13.95h-40.25v66.94zm-30.71 1.21c14.55 0 20.88-10.04 23.99-18.37l-13.45-5.62c-1.41 5.32-5.12 9.63-10.54 9.63-7.93 0-12.65-8.53-12.65-20.27s4.72-20.27 12.65-20.27c5.22 0 8.83 3.81 10.54 9.03l13.45-5.82c-3.31-8.23-9.63-17.56-23.99-17.56-17.86 0-29.21 14.15-29.21 34.63.01 20.36 11.35 34.62 29.21 34.62m-51.69-46.17c0 4.82-3.01 7.93-7.33 7.93h-8.53v-15.96h8.53c4.32 0 7.33 3.11 7.33 8.03m-1 44.96h17.96l-11.14-25.89c4.82-2.21 10.74-7.83 10.74-19.27 0-12.34-8.33-21.78-21.38-21.78h-27.3v66.94h16.26V240.4h6.02l8.84 23.08zm-93.64-23.69c0 15.76 9.94 24.89 25.99 24.89 15.96 0 25.89-9.13 25.89-24.99v-43.16h-16.46v43.26c0 6.73-3.21 10.64-9.43 10.64-6.42 0-9.63-3.91-9.63-10.64v-43.26h-16.36v43.26zm-24.38-9.73c0 11.54-4.52 20.27-12.65 20.27-8.23 0-12.65-8.73-12.65-20.27 0-11.64 4.42-20.27 12.65-20.27 8.13 0 12.65 8.63 12.65 20.27m-41.86 0c0 20.17 11.14 34.63 29.21 34.63s29.21-14.45 29.21-34.63-11.14-34.63-29.21-34.63-29.21 14.46-29.21 34.63m-52.79 25.89c5.62 5.42 13.35 8.73 24.19 8.73 15.15 0 23.99-8.63 23.99-21.38 0-13.55-11.44-17.76-20.07-20.88-5.82-2.11-9.54-3.91-9.54-7.53 0-3.01 2.11-5.32 6.73-5.32 4.62 0 9.94 1.71 14.15 5.52l7.53-12.04c-5.52-4.92-13.05-7.63-21.58-7.63-15.05 0-23.38 9.64-23.38 20.37 0 14.15 11.54 17.87 20.17 20.98 5.62 2.11 9.54 4.02 9.54 8.03 0 3.31-3.01 5.82-7.73 5.82-6.42 0-12.35-2.91-16.26-7.13l-7.74 12.46zm-42.55 7.53h15.46v-66.94h-16.06v36.73l-19.27-36.73h-16.56v66.94h16.16v-38.54l20.27 38.54zm-85.61 0h40.25v-13.95H138.3v-13.05h23.28v-13.95H138.3v-12.04h23.99v-13.95h-40.25v66.94zm-23.68-44.96c0 4.82-2.91 7.93-7.23 7.93H82.5v-15.96h8.63c4.32 0 7.23 3.11 7.23 8.03m-32.12 44.96H82.5V240.4h10.64c14.55 0 21.78-10.04 21.78-21.78 0-11.84-7.23-22.08-21.78-22.08h-26.9v66.94zm-24.39-33.42c0 11.54-4.52 20.27-12.65 20.27-8.23 0-12.65-8.73-12.65-20.27 0-11.64 4.42-20.27 12.65-20.27 8.14 0 12.65 8.63 12.65 20.27m-41.85 0c0 20.17 11.14 34.63 29.21 34.63s29.21-14.45 29.21-34.63-11.14-34.63-29.21-34.63S0 209.89 0 230.06m304.81 63.57v-14.65h-4.44v7.38l-5.09-7.38h-4.57v14.65h4.44v-7.86l5.4 7.86h4.26zm-18.67-14.65h-4.44v14.65h4.44v-14.65zm-265.13 5.84H274.9v1.15H21.01z"/><path d="M23.25 287.64c1.24 0 2.24-1 2.24-2.24 0-1.24-1-2.24-2.24-2.24-1.24 0-2.24 1-2.24 2.24 0 1.23 1 2.24 2.24 2.24m288.37-2.82h253.89v1.15H311.62z"/><path d="M563.27 287.64c-1.24 0-2.24-1-2.24-2.24 0-1.24 1-2.24 2.24-2.24 1.24 0 2.24 1 2.24 2.24 0 1.23-1.01 2.24-2.24 2.24"/></svg>